<?xml version="1.0" encoding="UTF-8" standalone="no"?>
<!-- Created with Inkscape (http://www.inkscape.org/) -->

<svg
   xmlns:dc="http://purl.org/dc/elements/1.1/"
   xmlns:cc="http://creativecommons.org/ns#"
   xmlns:rdf="http://www.w3.org/1999/02/22-rdf-syntax-ns#"
   xmlns:svg="http://www.w3.org/2000/svg"
   xmlns="http://www.w3.org/2000/svg"
   xmlns:xlink="http://www.w3.org/1999/xlink"
   xmlns:sodipodi="http://sodipodi.sourceforge.net/DTD/sodipodi-0.dtd"
   xmlns:inkscape="http://www.inkscape.org/namespaces/inkscape"
   width="92.898827mm"
   height="82.48735mm"
   viewBox="0 0 92.898827 82.48735"
   version="1.1"
   id="svg1722"
   inkscape:version="0.92.4 (5da689c313, 2019-01-14)"
   sodipodi:docname="jambes.svg">
  <defs
     id="defs1716">
    <pattern
       patternTransform="matrix(0.35277776,0,0,-0.35277776,-155.66841,117.87742)"
       id="pattern1714"
       xlink:href="#pattern224"
       inkscape:collect="always" />
    <pattern
       patternTransform="matrix(10,0,0,10,29,5)"
       patternUnits="userSpaceOnUse"
       x="0"
       y="0"
       width="5.11346"
       height="5.11346"
       id="pattern224">
      <g
         transform="scale(0.1)"
         id="g222">
        <g
           id="g220">
          <g
             clip-path="url(#clipPath206)"
             id="g218">
            <path
               d="m 25.5664,35.3711 c -5.4141,0 -9.8008,-4.3906 -9.8008,-9.8047 0,-5.4141 4.3867,-9.8008 9.8008,-9.8008 5.4141,0 9.8047,4.3867 9.8047,9.8008 0,5.4141 -4.3906,9.8047 -9.8047,9.8047"
               style="fill:#1d1d1b;fill-opacity:1;fill-rule:nonzero;stroke:none"
               id="path208" />
            <path
               d="M 0,9.83203 0,0 9.79688,0 c 0,0.0117188 0.0039,0.0195313 0.0039,0.03125 0,5.41406 -4.38672,9.80078 -9.80078,9.80078"
               style="fill:#1d1d1b;fill-opacity:1;fill-rule:nonzero;stroke:none"
               id="path210" />
            <path
               d="m 41.332,51.1328 c 0,-5.4101 4.3907,-9.8008 9.8008,-9.8008 l 0,9.8008 -9.8008,0"
               style="fill:#1d1d1b;fill-opacity:1;fill-rule:nonzero;stroke:none"
               id="path212" />
            <path
               d="M 41.332,0.03125 C 41.332,0.0195313 41.3398,0.0117188 41.3398,0 l 9.793,0 0,9.83203 c -5.4101,0 -9.8008,-4.38672 -9.8008,-9.80078"
               style="fill:#1d1d1b;fill-opacity:1;fill-rule:nonzero;stroke:none"
               id="path214" />
            <path
               d="m 0,41.332 c 5.41406,0 9.80078,4.3907 9.80078,9.8008 L 0,51.1328 0,41.332"
               style="fill:#1d1d1b;fill-opacity:1;fill-rule:nonzero;stroke:none"
               id="path216" />
          </g>
        </g>
      </g>
    </pattern>
    <clipPath
       clipPathUnits="userSpaceOnUse"
       id="clipPath206">
      <path
         d="M 0,0 V 52 H 52 V 0 Z"
         id="path204"
         inkscape:connector-curvature="0" />
    </clipPath>
  </defs>
  <sodipodi:namedview
     id="base"
     pagecolor="#ffffff"
     bordercolor="#666666"
     borderopacity="1.0"
     inkscape:pageopacity="0.0"
     inkscape:pageshadow="2"
     inkscape:zoom="1.4"
     inkscape:cx="135.33553"
     inkscape:cy="149.56324"
     inkscape:document-units="mm"
     inkscape:current-layer="layer1"
     showgrid="false"
     fit-margin-top="10"
     fit-margin-left="10"
     fit-margin-right="10"
     fit-margin-bottom="10"
     inkscape:window-width="1544"
     inkscape:window-height="871"
     inkscape:window-x="0"
     inkscape:window-y="0"
     inkscape:window-maximized="1" />
  <metadata
     id="metadata1719">
    <rdf:RDF>
      <cc:Work
         rdf:about="">
        <dc:format>image/svg+xml</dc:format>
        <dc:type
           rdf:resource="http://purl.org/dc/dcmitype/StillImage" />
        <dc:title></dc:title>
      </cc:Work>
    </rdf:RDF>
  </metadata>
  <g
     inkscape:label="Calque 1"
     inkscape:groupmode="layer"
     id="layer1"
     transform="translate(-33.681539,-35.01823)">
    <path
       d="M 75.859281,67.628815 86.233419,96.131142 104.36831,89.530354 89.737206,45.601372 H 63.554041 L 47.545338,89.530635 65.680585,96.131142 77.952313,62.414054"
       style="fill:#ffffff;fill-opacity:1;fill-rule:nonzero;stroke:none;stroke-width:0.03527778"
       id="path202"
       inkscape:connector-curvature="0" />
    <path
       d="M 75.859281,67.628815 86.233419,96.131142 104.36831,89.530354 89.737206,45.601372 H 63.554041 L 47.545338,89.530635 65.680585,96.131142 77.952313,62.414054"
       style="fill:url(#pattern1714);fill-opacity:1;fill-rule:nonzero;stroke:none;stroke-width:0.03527778"
       id="path226"
       inkscape:connector-curvature="0" />
    <path
       d="M 75.859281,67.628815 86.233419,96.131142 104.36831,89.530354 89.737206,45.601372 H 63.554041 L 47.545338,89.530635 65.680585,96.131142 77.952313,62.414054"
       style="fill:none;stroke:#1d1d1b;stroke-width:1.16628337;stroke-linecap:butt;stroke-linejoin:miter;stroke-miterlimit:4;stroke-dasharray:none;stroke-opacity:1"
       id="path228"
       inkscape:connector-curvature="0" />
    <path
       d="m 115.85476,96.099464 c -2.55482,-8.00213 -11.14708,-6.659105 -11.14708,-6.659105 l -15.432259,5.578157 -0.688269,0.250402 -2.351971,0.856157 3.33093,9.151445 c 0.47272,1.29893 1.908879,1.9685 3.207808,1.49585 l 22.085301,-8.038786 c 0,0 1.645,-0.600004 0.99554,-2.63412"
       style="fill:#ffffff;fill-opacity:1;fill-rule:nonzero;stroke:none;stroke-width:0.03527778"
       id="path230"
       inkscape:connector-curvature="0" />
    <path
       d="m 115.85476,96.099464 c -2.55482,-8.00213 -11.14708,-6.659105 -11.14708,-6.659105 l -15.432259,5.578157 -0.688269,0.250402 -2.351971,0.856157 3.33093,9.151445 c 0.47272,1.29893 1.908879,1.9685 3.207808,1.49585 l 22.085301,-8.038786 c 0,0 1.645,-0.600004 0.99554,-2.63412 z"
       style="fill:none;stroke:#1d1d1b;stroke-width:1.16628337;stroke-linecap:butt;stroke-linejoin:round;stroke-miterlimit:4;stroke-dasharray:none;stroke-opacity:1"
       id="path232"
       inkscape:connector-curvature="0" />
    <path
       d="m 71.567388,104.27357 c 0.07691,-5.494795 -5.374216,-8.591936 -5.374216,-8.591936 l -15.407217,-5.646492 -0.688622,-0.250825 -2.351617,-0.855908 -3.330928,9.151442 c -0.472722,1.298927 0.19685,2.735119 1.495778,3.207779 l 13.592881,4.94742 h 10.137069 c 0.0011,0 0.0021,0 0.0028,0 1.063624,0 1.925813,-0.86222 1.925813,-1.92578 0,-0.012 -0.0013,-0.0237 -0.0019,-0.0357"
       style="fill:#ffffff;fill-opacity:1;fill-rule:nonzero;stroke:none;stroke-width:0.03527778"
       id="path234"
       inkscape:connector-curvature="0" />
    <path
       d="m 71.567388,104.27357 c 0.07691,-5.494795 -5.374216,-8.591936 -5.374216,-8.591936 l -15.407217,-5.646492 -0.688622,-0.250825 -2.351617,-0.855908 -3.330928,9.151442 c -0.472722,1.298927 0.19685,2.735119 1.495778,3.207779 l 13.592881,4.94742 h 10.137069 c 0.0011,0 0.0021,0 0.0028,0 1.063624,0 1.925813,-0.86222 1.925813,-1.92578 0,-0.012 -0.0013,-0.0237 -0.0019,-0.0357 z"
       style="fill:none;stroke:#1d1d1b;stroke-width:1.16628337;stroke-linecap:butt;stroke-linejoin:round;stroke-miterlimit:4;stroke-dasharray:none;stroke-opacity:1"
       id="path236"
       inkscape:connector-curvature="0" />
  </g>
</svg>
