<?xml version="1.0" encoding="UTF-8" standalone="no"?>
<!-- Created with Inkscape (http://www.inkscape.org/) -->

<svg
   xmlns:dc="http://purl.org/dc/elements/1.1/"
   xmlns:cc="http://creativecommons.org/ns#"
   xmlns:rdf="http://www.w3.org/1999/02/22-rdf-syntax-ns#"
   xmlns:svg="http://www.w3.org/2000/svg"
   xmlns="http://www.w3.org/2000/svg"
   xmlns:sodipodi="http://sodipodi.sourceforge.net/DTD/sodipodi-0.dtd"
   xmlns:inkscape="http://www.inkscape.org/namespaces/inkscape"
   width="30mm"
   height="30mm"
   viewBox="0 0 29.999999 30"
   version="1.1"
   id="svg4959"
   inkscape:version="0.92.4 (5da689c313, 2019-01-14)"
   sodipodi:docname="favicon.svg">
  <defs
     id="defs4953" />
  <sodipodi:namedview
     id="base"
     pagecolor="#ffffff"
     bordercolor="#666666"
     borderopacity="1.0"
     inkscape:pageopacity="0.0"
     inkscape:pageshadow="2"
     inkscape:zoom="1.979899"
     inkscape:cx="55.733848"
     inkscape:cy="35.681128"
     inkscape:document-units="mm"
     inkscape:current-layer="layer1"
     showgrid="false"
     fit-margin-top="0"
     fit-margin-left="0"
     fit-margin-right="0"
     fit-margin-bottom="0"
     inkscape:window-width="1544"
     inkscape:window-height="871"
     inkscape:window-x="0"
     inkscape:window-y="0"
     inkscape:window-maximized="1" />
  <metadata
     id="metadata4956">
    <rdf:RDF>
      <cc:Work
         rdf:about="">
        <dc:format>image/svg+xml</dc:format>
        <dc:type
           rdf:resource="http://purl.org/dc/dcmitype/StillImage" />
        <dc:title></dc:title>
      </cc:Work>
    </rdf:RDF>
  </metadata>
  <g
     inkscape:label="Calque 1"
     inkscape:groupmode="layer"
     id="layer1"
     transform="translate(-136.23827,-127.86826)">
    <g
       id="g5544"
       transform="translate(3.0716024,-1.4293617)">
      <path
         inkscape:transform-center-y="-27.145433"
         inkscape:transform-center-x="36.805231"
         inkscape:connector-curvature="0"
         id="path172-1"
         style="fill:#ffffff;fill-opacity:1;fill-rule:nonzero;stroke:none;stroke-width:0.03527778"
         d="m 139.32284,157.21495 c 0,0 0.76222,-2.83238 2.15221,-6.86983 1.39033,-4.03754 1.87807,-4.26319 8.14391,-5.94212 6.26584,-1.67893 8.43555,4.09457 8.43555,4.09457 l 0.2933,8.78755 -19.02497,-0.0702" />
      <path
         inkscape:transform-center-y="-27.145433"
         inkscape:transform-center-x="36.805231"
         inkscape:connector-curvature="0"
         id="path174-2"
         style="fill:none;stroke:#1d1d1b;stroke-width:1.16628337;stroke-linecap:butt;stroke-linejoin:round;stroke-miterlimit:4;stroke-dasharray:none;stroke-opacity:1"
         d="m 139.32284,157.21495 c 0,0 0.76222,-2.83238 2.15221,-6.86983 1.39033,-4.03754 1.87807,-4.26319 8.14391,-5.94212 6.26584,-1.67893 8.43555,4.09457 8.43555,4.09457 l 0.2933,8.78755 z" />
      <path
         inkscape:transform-center-y="-65.582858"
         inkscape:transform-center-x="65.812977"
         inkscape:connector-curvature="0"
         id="path176-7"
         style="fill:#ffffff;fill-opacity:1;fill-rule:nonzero;stroke:none;stroke-width:0.03527778"
         d="m 145.50083,142.55107 c 0,0 -3.32512,-8.66252 -3.33442,-8.68633 -0.54287,-1.41404 -2.13865,-2.11645 -3.56527,-1.56874 -1.42637,0.54728 -2.14265,2.13764 -1.59977,3.55168 0.009,0.0239 5.02239,13.08455 5.02239,13.08455" />
      <path
         inkscape:transform-center-y="-65.582858"
         inkscape:transform-center-x="65.812977"
         inkscape:connector-curvature="0"
         id="path178-0"
         style="fill:none;stroke:#1d1d1b;stroke-width:1.16628337;stroke-linecap:butt;stroke-linejoin:miter;stroke-miterlimit:4;stroke-dasharray:none;stroke-opacity:1"
         d="m 145.50083,142.55107 c 0,0 -3.32512,-8.66252 -3.33442,-8.68633 -0.54287,-1.41404 -2.13865,-2.11645 -3.56527,-1.56874 -1.42637,0.54728 -2.14265,2.13764 -1.59977,3.55168 0.009,0.0239 5.02239,13.08455 5.02239,13.08455" />
      <path
         inkscape:transform-center-y="-76.242568"
         inkscape:transform-center-x="33.008788"
         inkscape:connector-curvature="0"
         id="path180-9"
         style="fill:#ffffff;fill-opacity:1;fill-rule:nonzero;stroke:none;stroke-width:0.03527778"
         d="m 150.65971,144.09309 c 0,0 3.71244,-8.96207 3.72214,-8.98586 0.58057,-1.4017 -0.0852,-3.00852 -1.48688,-3.58908 -1.40136,-0.58066 -3.00818,0.0851 -3.58875,1.48679 -0.01,0.0234 -4.21826,10.18341 -4.21826,10.18341" />
      <path
         inkscape:transform-center-y="-76.242568"
         inkscape:transform-center-x="33.008788"
         inkscape:connector-curvature="0"
         id="path182-3"
         style="fill:none;stroke:#1d1d1b;stroke-width:1.16628337;stroke-linecap:butt;stroke-linejoin:miter;stroke-miterlimit:4;stroke-dasharray:none;stroke-opacity:1"
         d="m 150.65971,144.09309 c 0,0 3.71244,-8.96207 3.72214,-8.98586 0.58057,-1.4017 -0.0852,-3.00852 -1.48688,-3.58908 -1.40136,-0.58066 -3.00818,0.0851 -3.58875,1.48679 -0.01,0.0234 -4.21826,10.18341 -4.21826,10.18341" />
      <path
         inkscape:transform-center-y="-49.923581"
         inkscape:transform-center-x="21.824425"
         inkscape:connector-curvature="0"
         id="path184-6"
         style="fill:#ffffff;fill-opacity:1;fill-rule:nonzero;stroke:none;stroke-width:0.03527778"
         d="m 154.75402,140.11369 c -1.12839,-0.48471 -2.44333,0.0532 -2.93685,1.20182 -0.008,0.0194 -2.11455,4.92223 -2.12286,4.94162 -0.49352,1.14865 0.0212,2.47271 1.14971,2.95776 1.12839,0.4847 2.44325,-0.0535 2.93642,-1.20207 0.009,-0.0195 2.11489,-4.92233 2.12321,-4.94172 0.49361,-1.14831 -0.0212,-2.47271 -1.14963,-2.95741" />
      <path
         inkscape:transform-center-y="-49.923581"
         inkscape:transform-center-x="21.824425"
         inkscape:connector-curvature="0"
         id="path186-0"
         style="fill:none;stroke:#1d1d1b;stroke-width:1.16628337;stroke-linecap:butt;stroke-linejoin:miter;stroke-miterlimit:4;stroke-dasharray:none;stroke-opacity:1"
         d="m 154.75402,140.11369 c -1.12839,-0.48471 -2.44333,0.0532 -2.93685,1.20182 -0.008,0.0194 -2.11455,4.92223 -2.12286,4.94162 -0.49352,1.14865 0.0212,2.47271 1.14971,2.95776 1.12839,0.4847 2.44325,-0.0535 2.93642,-1.20207 0.009,-0.0195 2.11489,-4.92233 2.12321,-4.94172 0.49361,-1.14831 -0.0212,-2.47271 -1.14963,-2.95741 z" />
      <path
         inkscape:transform-center-y="-38.994683"
         inkscape:transform-center-x="8.2152944"
         inkscape:connector-curvature="0"
         id="path188-6"
         style="fill:#ffffff;fill-opacity:1;fill-rule:nonzero;stroke:none;stroke-width:0.03527778"
         d="m 158.17694,143.41922 c -1.12839,-0.4847 -2.44334,0.0532 -2.93685,1.20182 -0.008,0.0194 -1.75888,4.09466 -1.7672,4.11405 -0.49352,1.14866 0.0212,2.47272 1.14963,2.95742 1.12839,0.4847 2.44333,-0.0532 2.93651,-1.20173 0.009,-0.0195 1.75922,-4.09475 1.76753,-4.11415 0.49361,-1.14831 -0.0212,-2.47271 -1.14962,-2.95741" />
      <path
         inkscape:transform-center-y="-38.994683"
         inkscape:transform-center-x="8.2152944"
         inkscape:connector-curvature="0"
         id="path190-2"
         style="fill:none;stroke:#1d1d1b;stroke-width:1.16628337;stroke-linecap:butt;stroke-linejoin:miter;stroke-miterlimit:4;stroke-dasharray:none;stroke-opacity:1"
         d="m 158.17694,143.41922 c -1.12839,-0.4847 -2.44334,0.0532 -2.93685,1.20182 -0.008,0.0194 -1.75888,4.09466 -1.7672,4.11405 -0.49352,1.14866 0.0212,2.47272 1.14963,2.95742 1.12839,0.4847 2.44333,-0.0532 2.93651,-1.20173 0.009,-0.0195 1.75922,-4.09475 1.76753,-4.11415 0.49361,-1.14831 -0.0212,-2.47271 -1.14962,-2.95741 z" />
      <path
         inkscape:transform-center-y="-32.343161"
         inkscape:transform-center-x="53.105577"
         inkscape:connector-curvature="0"
         id="path198-6"
         style="fill:#ffffff;fill-opacity:1;fill-rule:nonzero;stroke:none;stroke-width:0.03527778"
         d="m 146.9491,157.18789 -7.82083,-0.0271 c 0,0 -0.8276,-6.76202 0.56294,-9.4494 1.14158,-2.20577 2.99353,-3.53507 4.49154,-4.6764 1.49768,-1.14124 3.69218,-2.26212 5.1921,-1.10233 1.49993,1.15979 0.53571,3.28736 -0.27052,4.45479 -0.83154,1.2038 -4.13887,4.18929 -4.13887,4.18929" />
      <path
         inkscape:transform-center-y="-32.343161"
         inkscape:transform-center-x="53.105577"
         inkscape:connector-curvature="0"
         id="path200-1"
         style="fill:none;stroke:#1d1d1b;stroke-width:1.16628337;stroke-linecap:butt;stroke-linejoin:miter;stroke-miterlimit:4;stroke-dasharray:none;stroke-opacity:1"
         d="m 146.9491,157.18789 -7.82083,-0.0271 c 0,0 -0.8276,-6.76202 0.56294,-9.4494 1.14158,-2.20577 2.99353,-3.53507 4.49154,-4.6764 1.49768,-1.14124 3.69218,-2.26212 5.1921,-1.10233 1.49993,1.15979 0.53571,3.28736 -0.27052,4.45479 -0.83154,1.2038 -4.13887,4.18929 -4.13887,4.18929" />
    </g>
  </g>
</svg>
