<?xml version="1.0" encoding="UTF-8" standalone="no"?>
<!-- Created with Inkscape (http://www.inkscape.org/) -->

<svg
   xmlns:dc="http://purl.org/dc/elements/1.1/"
   xmlns:cc="http://creativecommons.org/ns#"
   xmlns:rdf="http://www.w3.org/1999/02/22-rdf-syntax-ns#"
   xmlns:svg="http://www.w3.org/2000/svg"
   xmlns="http://www.w3.org/2000/svg"
   xmlns:sodipodi="http://sodipodi.sourceforge.net/DTD/sodipodi-0.dtd"
   xmlns:inkscape="http://www.inkscape.org/namespaces/inkscape"
   width="210mm"
   height="297mm"
   viewBox="0 0 210 297"
   version="1.1"
   id="svg3643"
   inkscape:version="0.92.4 (5da689c313, 2019-01-14)"
   sodipodi:docname="P.svg">
  <defs
     id="defs3637" />
  <sodipodi:namedview
     id="base"
     pagecolor="#ffffff"
     bordercolor="#666666"
     borderopacity="1.0"
     inkscape:pageopacity="0.0"
     inkscape:pageshadow="2"
     inkscape:zoom="0.98994949"
     inkscape:cx="69.51103"
     inkscape:cy="685.57143"
     inkscape:document-units="mm"
     inkscape:current-layer="layer1"
     showgrid="false"
     inkscape:window-width="1544"
     inkscape:window-height="871"
     inkscape:window-x="0"
     inkscape:window-y="0"
     inkscape:window-maximized="1" />
  <metadata
     id="metadata3640">
    <rdf:RDF>
      <cc:Work
         rdf:about="">
        <dc:format>image/svg+xml</dc:format>
        <dc:type
           rdf:resource="http://purl.org/dc/dcmitype/StillImage" />
        <dc:title></dc:title>
      </cc:Work>
    </rdf:RDF>
  </metadata>
  <g
     inkscape:label="Calque 1"
     inkscape:groupmode="layer"
     id="layer1">
    <path
       d="m 79.838545,76.384193 c 0,7.851775 -2.617259,11.433527 -7.714192,15.014927 -5.259917,3.696052 -16.943387,3.168296 -16.943387,3.168296 l -0.09701,23.983314 H 33.554312 V 63.098229 c 0,0 0.637223,-3.317522 1.037273,-3.792361 0.50546,-0.600075 4.049501,-1.129947 4.049501,-1.129947 l 16.491514,0.01199 c 0,0 11.731836,-0.514703 16.991753,3.18135 5.096933,3.581399 7.714192,7.163152 7.714192,15.014927"
       style="fill:#b49ee6;fill-opacity:1;fill-rule:nonzero;stroke:none;stroke-width:0.03527778"
       id="path160"
       inkscape:connector-curvature="0" />
    <path
       d="m 79.838545,76.384193 c 0,7.851775 -2.617259,11.433527 -7.714192,15.014927 -5.259917,3.696052 -16.943387,3.168296 -16.943387,3.168296 l -0.09701,23.983314 H 33.554312 V 61.683238 c 0,-1.93675 1.570708,-3.506611 3.507387,-3.505553 l 18.070901,0.01023 c 0,0 11.731836,-0.514703 16.991753,3.18135 5.096933,3.581399 7.714192,7.163152 7.714192,15.014927"
       style="fill:none;stroke:#1d1d1b;stroke-width:1.16628337;stroke-linecap:butt;stroke-linejoin:miter;stroke-miterlimit:4;stroke-dasharray:none;stroke-opacity:1"
       id="path162"
       inkscape:connector-curvature="0" />
    <path
       d="m 50.691622,76.432876 c 2.624737,0 4.752269,-2.127603 4.752269,-4.752269 0,-2.62502 -2.127532,-4.752622 -4.752269,-4.752622 -2.624632,0 -4.752199,2.127602 -4.752199,4.752622 0,2.624666 2.127567,4.752269 4.752199,4.752269"
       style="fill:#ffffff;fill-opacity:1;fill-rule:nonzero;stroke:none;stroke-width:0.03527778"
       id="path164"
       inkscape:connector-curvature="0" />
    <path
       d="m 50.691622,76.432876 c 2.624737,0 4.752269,-2.127603 4.752269,-4.752269 0,-2.62502 -2.127532,-4.752622 -4.752269,-4.752622 -2.624632,0 -4.752199,2.127602 -4.752199,4.752622 0,2.624666 2.127567,4.752269 4.752199,4.752269 z"
       style="fill:none;stroke:#1d1d1b;stroke-width:1.06926942;stroke-linecap:butt;stroke-linejoin:miter;stroke-miterlimit:4;stroke-dasharray:none;stroke-opacity:1"
       id="path166"
       inkscape:connector-curvature="0" />
    <path
       d="m 52.184718,76.062106 c 1.684902,0 3.050822,-1.365955 3.050822,-3.050822 0,-1.685219 -1.36592,-3.050822 -3.050822,-3.050822 -1.684796,0 -3.050857,1.365603 -3.050857,3.050822 0,1.684867 1.366061,3.050822 3.050857,3.050822"
       style="fill:#1d1d1b;fill-opacity:1;fill-rule:nonzero;stroke:none;stroke-width:0.03527778"
       id="path168"
       inkscape:connector-curvature="0" />
    <path
       d="m 42.399545,98.916848 c 0,0 3.164805,3.604262 12.733901,3.604262"
       style="fill:none;stroke:#1d1d1b;stroke-width:1.16628337;stroke-linecap:butt;stroke-linejoin:miter;stroke-miterlimit:4;stroke-dasharray:none;stroke-opacity:1"
       id="path170"
       inkscape:connector-curvature="0" />
  </g>
</svg>
