<?xml version="1.0" encoding="UTF-8" standalone="no"?>
<!-- Created with Inkscape (http://www.inkscape.org/) -->

<svg
   xmlns:dc="http://purl.org/dc/elements/1.1/"
   xmlns:cc="http://creativecommons.org/ns#"
   xmlns:rdf="http://www.w3.org/1999/02/22-rdf-syntax-ns#"
   xmlns:svg="http://www.w3.org/2000/svg"
   xmlns="http://www.w3.org/2000/svg"
   xmlns:sodipodi="http://sodipodi.sourceforge.net/DTD/sodipodi-0.dtd"
   xmlns:inkscape="http://www.inkscape.org/namespaces/inkscape"
   width="124.29325mm"
   height="104.31715mm"
   viewBox="0 0 124.29325 104.31715"
   version="1.1"
   id="svg2357"
   inkscape:version="0.92.4 (5da689c313, 2019-01-14)"
   sodipodi:docname="W.svg">
  <defs
     id="defs2351" />
  <sodipodi:namedview
     id="base"
     pagecolor="#ffffff"
     bordercolor="#666666"
     borderopacity="1.0"
     inkscape:pageopacity="0.0"
     inkscape:pageshadow="2"
     inkscape:zoom="0.98994949"
     inkscape:cx="100.86771"
     inkscape:cy="84.185271"
     inkscape:document-units="mm"
     inkscape:current-layer="layer1"
     showgrid="false"
     fit-margin-top="20"
     fit-margin-left="20"
     fit-margin-right="20"
     fit-margin-bottom="20"
     inkscape:window-width="1544"
     inkscape:window-height="871"
     inkscape:window-x="0"
     inkscape:window-y="0"
     inkscape:window-maximized="1" />
  <metadata
     id="metadata2354">
    <rdf:RDF>
      <cc:Work
         rdf:about="">
        <dc:format>image/svg+xml</dc:format>
        <dc:type
           rdf:resource="http://purl.org/dc/dcmitype/StillImage" />
        <dc:title></dc:title>
      </cc:Work>
    </rdf:RDF>
  </metadata>
  <g
     inkscape:label="Calque 1"
     inkscape:groupmode="layer"
     id="layer1"
     transform="translate(-14.960516,-22.591426)">
    <path
       d="m 96.054014,67.446571 c 0,0 1.469319,-2.538589 3.856919,-6.078714 2.387957,-3.540125 2.917477,-3.631847 9.404347,-3.631847 6.48688,0 7.08837,6.138333 7.08837,6.138333 l -1.99108,8.564034 -18.358556,-4.991806"
       style="fill:#ffffff;fill-opacity:1;fill-rule:nonzero;stroke:none;stroke-width:0.03527778"
       id="path172"
       inkscape:connector-curvature="0" />
    <path
       d="m 96.054014,67.446571 c 0,0 1.469319,-2.538589 3.856919,-6.078714 2.387957,-3.540125 2.917477,-3.631847 9.404347,-3.631847 6.48688,0 7.08837,6.138333 7.08837,6.138333 l -1.99108,8.564034 z"
       style="fill:none;stroke:#1d1d1b;stroke-width:1.16628337;stroke-linecap:butt;stroke-linejoin:round;stroke-miterlimit:4;stroke-dasharray:none;stroke-opacity:1"
       id="path174"
       inkscape:connector-curvature="0" />
    <path
       d="m 105.81679,54.881332 c 0,0 -0.96979,-9.227961 -0.97261,-9.253361 -0.1584,-1.506361 -1.51801,-2.597856 -3.03777,-2.438048 -1.51941,0.159456 -2.622904,1.510242 -2.464506,3.016603 0.0024,0.0254 1.464736,13.938603 1.464736,13.938603"
       style="fill:#ffffff;fill-opacity:1;fill-rule:nonzero;stroke:none;stroke-width:0.03527778"
       id="path176"
       inkscape:connector-curvature="0" />
    <path
       d="m 105.81679,54.881332 c 0,0 -0.96979,-9.227961 -0.97261,-9.253361 -0.1584,-1.506361 -1.51801,-2.597856 -3.03777,-2.438048 -1.51941,0.159456 -2.622904,1.510242 -2.464506,3.016603 0.0024,0.0254 1.464736,13.938603 1.464736,13.938603"
       style="fill:none;stroke:#1d1d1b;stroke-width:1.16628337;stroke-linecap:butt;stroke-linejoin:miter;stroke-miterlimit:4;stroke-dasharray:none;stroke-opacity:1"
       id="path178"
       inkscape:connector-curvature="0" />
    <path
       d="m 110.40078,57.706023 c 0,0 5.9055,-7.695847 5.92102,-7.716308 0.92357,-1.203678 0.69639,-2.928056 -0.50729,-3.851628 -1.20333,-0.923572 -2.9277,-0.696383 -3.85128,0.507295 -0.0155,0.02011 -6.71018,8.744655 -6.71018,8.744655"
       style="fill:#ffffff;fill-opacity:1;fill-rule:nonzero;stroke:none;stroke-width:0.03527778"
       id="path180"
       inkscape:connector-curvature="0" />
    <path
       d="m 110.40078,57.706023 c 0,0 5.9055,-7.695847 5.92102,-7.716308 0.92357,-1.203678 0.69639,-2.928056 -0.50729,-3.851628 -1.20333,-0.923572 -2.9277,-0.696383 -3.85128,0.507295 -0.0155,0.02011 -6.71018,8.744655 -6.71018,8.744655"
       style="fill:none;stroke:#1d1d1b;stroke-width:1.16628337;stroke-linecap:butt;stroke-linejoin:miter;stroke-miterlimit:4;stroke-dasharray:none;stroke-opacity:1"
       id="path182"
       inkscape:connector-curvature="0" />
    <path
       d="m 115.38553,54.921901 c -0.96449,-0.760236 -2.37384,-0.581025 -3.14783,0.400756 -0.013,0.01658 -3.31647,4.207228 -3.32952,4.223808 -0.774,0.981781 -0.61948,2.39395 0.34502,3.154539 0.96449,0.760236 2.37384,0.580672 3.14748,-0.401108 0.0134,-0.01658 3.31682,-4.207228 3.32987,-4.223809 0.77399,-0.981427 0.61947,-2.39395 -0.34502,-3.154186"
       style="fill:#ffffff;fill-opacity:1;fill-rule:nonzero;stroke:none;stroke-width:0.03527778"
       id="path184"
       inkscape:connector-curvature="0" />
    <path
       d="m 115.38553,54.921901 c -0.96449,-0.760236 -2.37384,-0.581025 -3.14783,0.400756 -0.013,0.01658 -3.31647,4.207228 -3.32952,4.223808 -0.774,0.981781 -0.61948,2.39395 0.34502,3.154539 0.96449,0.760236 2.37384,0.580672 3.14748,-0.401108 0.0134,-0.01658 3.31682,-4.207228 3.32987,-4.223809 0.77399,-0.981427 0.61947,-2.39395 -0.34502,-3.154186 z"
       style="fill:none;stroke:#1d1d1b;stroke-width:1.16628337;stroke-linecap:butt;stroke-linejoin:miter;stroke-miterlimit:4;stroke-dasharray:none;stroke-opacity:1"
       id="path186"
       inkscape:connector-curvature="0" />
    <path
       d="m 117.83628,59.000718 c -0.9645,-0.760236 -2.37384,-0.581025 -3.14784,0.400755 -0.013,0.01658 -2.75872,3.499909 -2.77177,3.516489 -0.774,0.981781 -0.61948,2.39395 0.34501,3.154186 0.9645,0.760236 2.37384,0.581025 3.14749,-0.400755 0.0134,-0.01658 2.75907,-3.499908 2.77213,-3.516489 0.77399,-0.981428 0.61947,-2.39395 -0.34502,-3.154186"
       style="fill:#ffffff;fill-opacity:1;fill-rule:nonzero;stroke:none;stroke-width:0.03527778"
       id="path188"
       inkscape:connector-curvature="0" />
    <path
       d="m 117.83628,59.000718 c -0.9645,-0.760236 -2.37384,-0.581025 -3.14784,0.400755 -0.013,0.01658 -2.75872,3.499909 -2.77177,3.516489 -0.774,0.981781 -0.61948,2.39395 0.34501,3.154186 0.9645,0.760236 2.37384,0.581025 3.14749,-0.400755 0.0134,-0.01658 2.75907,-3.499908 2.77213,-3.516489 0.77399,-0.981428 0.61947,-2.39395 -0.34502,-3.154186 z"
       style="fill:none;stroke:#1d1d1b;stroke-width:1.16628337;stroke-linecap:butt;stroke-linejoin:miter;stroke-miterlimit:4;stroke-dasharray:none;stroke-opacity:1"
       id="path190"
       inkscape:connector-curvature="0" />
    <path
       d="m 35.649641,50.101898 c 1.623836,7.32155 6.436077,27.715281 9.017352,38.040309 3.122436,12.489463 10.101792,18.183223 18.918061,18.183223 12.307358,0 13.904031,-11.936833 14.111465,-15.919096 0.207078,3.982263 1.803752,15.919096 14.11111,15.919096 8.816271,0 15.795621,-5.69376 18.918061,-18.183223 1.10596,-4.423761 2.419,-10.114772 3.68688,-15.751103 L 95.845171,67.332623 c -1.489075,7.123289 -3.04518,13.440833 -3.853747,13.27926 -1.102077,-0.220486 0.506942,-14.133687 -1.957562,-24.457729 -1.637948,-6.861881 -5.076473,-11.604625 -12.3063,-11.632142 v -0.0011 c -0.01058,0 -0.02082,3.52e-4 -0.03104,3.52e-4 -0.01058,0 -0.02082,-3.52e-4 -0.0314,-3.52e-4 v 0.0011 c -7.229828,0.02752 -10.668353,4.770261 -12.306653,11.632142 -2.464155,10.324042 -0.855134,24.237243 -1.957213,24.457729 -1.83656,0.367241 -9.472082,-35.581871 -9.472082,-35.581871 l -18.279533,5.071886"
       style="fill:#b49ee6;fill-opacity:1;fill-rule:nonzero;stroke:none;stroke-width:0.03527778"
       id="path192"
       inkscape:connector-curvature="0" />
    <path
       d="m 35.649641,50.101898 c 1.623836,7.32155 6.436077,27.715281 9.017352,38.040309 3.122436,12.489463 10.101792,18.183223 18.918061,18.183223 12.307358,0 13.904031,-11.936833 14.111465,-15.919096 0.207078,3.982263 1.803752,15.919096 14.11111,15.919096 8.816271,0 15.795621,-5.69376 18.918061,-18.183223 1.10596,-4.423761 2.419,-10.114772 3.68688,-15.751103 L 95.845171,67.332623 c -1.489075,7.123289 -3.04518,13.440833 -3.853747,13.27926 -1.102077,-0.220486 0.506942,-14.133687 -1.957562,-24.457729 -1.637948,-6.861881 -5.076473,-11.604625 -12.3063,-11.632142 v -0.0011 c -0.01058,0 -0.02082,3.52e-4 -0.03104,3.52e-4 -0.01058,0 -0.02082,-3.52e-4 -0.0314,-3.52e-4 v 0.0011 c -7.229828,0.02752 -10.668353,4.770261 -12.306653,11.632142 -2.464155,10.324042 -0.855134,24.237243 -1.957213,24.457729 -1.83656,0.367241 -9.472082,-35.581871 -9.472082,-35.581871 z"
       style="fill:none;stroke:#1d1d1b;stroke-width:1.16628337;stroke-linecap:butt;stroke-linejoin:miter;stroke-miterlimit:4;stroke-dasharray:none;stroke-opacity:1"
       id="path194"
       inkscape:connector-curvature="0" />
    <path
       d="M 77.727562,72.865589 V 92.187581"
       style="fill:none;stroke:#1d1d1b;stroke-width:1.16628337;stroke-linecap:butt;stroke-linejoin:miter;stroke-miterlimit:4;stroke-dasharray:none;stroke-opacity:1"
       id="path196"
       inkscape:connector-curvature="0" />
    <path
       d="m 103.42742,69.394256 -7.547324,-2.050344 c 0,0 0.950735,-6.745816 2.989437,-8.981722 1.673577,-1.83515 3.806477,-2.639836 5.548837,-3.354564 1.74202,-0.714728 4.15185,-1.22943 5.30049,0.279047 1.14865,1.508478 -0.33337,3.313995 -1.41429,4.232981 -1.11477,0.947561 -5.08211,2.975328 -5.08211,2.975328"
       style="fill:#ffffff;fill-opacity:1;fill-rule:nonzero;stroke:none;stroke-width:0.03527778"
       id="path198"
       inkscape:connector-curvature="0" />
    <path
       d="m 103.42742,69.394256 -7.547324,-2.050344 c 0,0 0.950735,-6.745816 2.989437,-8.981722 1.673577,-1.83515 3.806477,-2.639836 5.548837,-3.354564 1.74202,-0.714728 4.15185,-1.22943 5.30049,0.279047 1.14865,1.508478 -0.33337,3.313995 -1.41429,4.232981 -1.11477,0.947561 -5.08211,2.975328 -5.08211,2.975328"
       style="fill:none;stroke:#1d1d1b;stroke-width:1.16628337;stroke-linecap:butt;stroke-linejoin:miter;stroke-miterlimit:4;stroke-dasharray:none;stroke-opacity:1"
       id="path200"
       inkscape:connector-curvature="0" />
  </g>
</svg>
