<?xml version="1.0" encoding="utf-8"?>
<!-- Generator: Adobe Illustrator 24.0.1, SVG Export Plug-In . SVG Version: 6.00 Build 0)  -->
<svg version="1.1"
	 id="Layer_1" xmlns:cc="http://creativecommons.org/ns#" xmlns:dc="http://purl.org/dc/elements/1.1/" xmlns:inkscape="http://www.inkscape.org/namespaces/inkscape" xmlns:rdf="http://www.w3.org/1999/02/22-rdf-syntax-ns#" xmlns:sodipodi="http://sodipodi.sourceforge.net/DTD/sodipodi-0.dtd" xmlns:svg="http://www.w3.org/2000/svg"
	 xmlns="http://www.w3.org/2000/svg" xmlns:xlink="http://www.w3.org/1999/xlink" x="0px" y="0px" viewBox="0 0 100 125"
	 style="enable-background:new 0 0 100 125;" xml:space="preserve">
<style type="text/css">
	.st0{fill-rule:evenodd;clip-rule:evenodd;}
</style>
<g transform="translate(0,-952.36218)">
	<path class="st0" d="M8,958.3c-1.1,0-2,0.9-2,2c0,0.5,0.2,1,0.6,1.4l40.6,40.6l-40.6,40.6c-0.9,0.7-1,2-0.3,2.8s2,1,2.8,0.3
		c0.1-0.1,0.2-0.2,0.3-0.3l40.6-40.6l40.6,40.6c0.7,0.9,2,1,2.8,0.3s1-2,0.3-2.8c-0.1-0.1-0.2-0.2-0.3-0.3l-40.6-40.6l40.6-40.6
		c0.8-0.8,0.8-2,0-2.8c-0.4-0.4-0.9-0.6-1.5-0.6c-0.5,0-1,0.2-1.4,0.6L50,999.5L9.4,958.9C9,958.5,8.5,958.3,8,958.3z"/>
</g>
</svg>
